<svg width="64" height="64" viewBox="0 0 64 64" fill="none" xmlns="http://www.w3.org/2000/svg">
<g clip-path="url(#clip0_666_51)">
<path d="M12.6101 26.3664L12.6035 26.3752V26.3625L16.1304 24.4237L16.1261 24.417H16.1326V17.7994L11.4858 20.3524L11.4836 20.3546L11.4984 20.3634L11.4836 20.3932L11.4667 20.3634L11.4836 20.3546L11.4793 20.3524L6.83301 17.7994V24.4165H6.83956L6.83519 24.4231L10.4828 26.4265V28.5363L11.0302 28.9542L29.9495 45.8804L31.9195 43.6394L12.6101 26.3664ZM8.95373 21.4015L10.4806 22.2428V23.9915L8.95373 23.1524V21.4015ZM10.4828 25.1663L10.4511 25.1084L10.4828 25.0913V25.1663ZM11.4645 26.9877L11.4498 26.9601L11.4836 26.9772L11.4645 26.9877ZM12.6014 22.1766L14.0119 21.4021V23.1529L12.6014 23.9275V22.1766Z" fill="#11603C"/>
<path d="M29.6295 43.759L31.5994 46L50.5187 29.0738L51.0661 28.6559V26.5461L54.7137 24.5427L54.7094 24.5361H54.7159V17.919L50.0691 20.472L50.0648 20.4742L50.0817 20.4831L50.0648 20.5128L50.05 20.4831L50.0648 20.4742L50.0626 20.472L45.4158 17.919V24.5361H45.4223L45.418 24.5427L48.9449 26.4816V26.4943L48.9383 26.4855L29.6289 43.7585L29.6295 43.759ZM52.5952 23.2715L51.0683 24.1105V22.3618L52.5952 21.5206V23.2715ZM51.0661 25.2104L51.0978 25.2274L51.0661 25.2853V25.2104ZM50.0653 27.0958L50.0992 27.0787L50.0844 27.1062L50.0653 27.0958ZM48.9476 24.046L47.537 23.2715V21.5206L48.9476 22.2951V24.046Z" fill="#7E9F34"/>
<path d="M11.9197 37.8712L11.9154 37.8927L11.8848 37.8855L11.9197 37.8712Z" fill="#980203"/>
<path d="M11.9282 37.8354L11.9393 37.8652L11.9199 37.8712L11.9282 37.8354Z" fill="#980203"/>
<path d="M6.97419 33.5331L6.98693 33.564L6.95312 33.5574L6.95645 33.5403L6.95756 33.5387L6.97419 33.5331Z" fill="#980203"/>
<path d="M8.0841 28.319L6.95764 33.5386L6.97403 33.5331L6.98659 33.564L6.95327 33.5574L6.95655 33.5403L2 35.4163L6.95928 39.7456L6.96365 39.7406L6.96583 39.7478L10.8538 38.2748L12.7478 39.9286L14.1354 38.31L12.1933 36.6143L13.0477 32.6538L13.0401 32.6527L13.0445 32.6478L8.08519 28.3185L8.0841 28.319ZM9.84427 37.4368L9.85246 37.4015L9.90873 37.4506L9.84481 37.4368H9.84427ZM11.9393 37.8652L11.9202 37.8712L11.9158 37.8927L11.8852 37.8861L11.9202 37.8712L11.9284 37.8359L11.9393 37.8657V37.8652Z" fill="#980203"/>
<path d="M9.85292 37.4015L9.90919 37.4506L9.84473 37.4368L9.85292 37.4015Z" fill="#980203"/>
<path d="M6.97419 33.5331L6.98693 33.564L6.95312 33.5574L6.95645 33.5403L6.95756 33.5387L6.97419 33.5331Z" fill="#980203"/>
<path d="M11.9282 37.8354L11.9393 37.8652L11.9199 37.8712L11.9282 37.8354Z" fill="#980203"/>
<path d="M9.85194 37.4016L9.90821 37.4506L9.84375 37.4368L9.85194 37.4016Z" fill="#980203"/>
<path d="M11.9197 37.8712L11.9154 37.8927L11.8848 37.8855L11.9197 37.8712Z" fill="#980203"/>
<path d="M6.97419 33.5331L6.98693 33.564L6.95312 33.5574L6.95645 33.5403L6.95756 33.5387L6.97419 33.5331Z" fill="#980203"/>
<path d="M51.0801 37.2808L51.0844 37.3023L51.115 37.2957L51.0801 37.2808Z" fill="#980203"/>
<path d="M51.0716 37.2455L51.0605 37.2753L51.0799 37.2808L51.0716 37.2455Z" fill="#980203"/>
<path d="M56.0264 32.9433L56.0137 32.9742L56.0475 32.9676L56.0442 32.9505L56.043 32.9488L56.0264 32.9433Z" fill="#980203"/>
<path d="M49.9562 32.0585L49.9606 32.0634L49.9529 32.0645L50.8073 36.025L48.8652 37.7207L50.2528 39.3393L52.1468 37.6855L56.0348 39.1585L56.037 39.1513L56.0414 39.1563L61.0007 34.827L56.0441 32.951L56.0474 32.9681L56.0141 32.9747L56.0266 32.9438L56.043 32.9493L54.9166 27.7297L49.9573 32.059L49.9562 32.0585ZM53.0914 36.8602L53.1477 36.8111L53.1558 36.8464L53.0919 36.8602H53.0914ZM51.0717 37.2455L51.0799 37.2808L51.1149 37.2957L51.0843 37.3023L51.0799 37.2808L51.0608 37.2748L51.0717 37.245V37.2455Z" fill="#980203"/>
<path d="M53.1471 36.8111L53.0908 36.8602L53.1553 36.8469L53.1471 36.8111Z" fill="#980203"/>
<path d="M56.0254 32.9433L56.0127 32.9742L56.0465 32.9676L56.0432 32.9505L56.0421 32.9488L56.0254 32.9433Z" fill="#980203"/>
<path d="M51.0716 37.2455L51.0605 37.2753L51.0799 37.2808L51.0716 37.2455Z" fill="#980203"/>
<path d="M53.1471 36.8112L53.0908 36.8602L53.1553 36.847L53.1471 36.8112Z" fill="#980203"/>
<path d="M51.0791 37.2808L51.0835 37.3023L51.1141 37.2957L51.0791 37.2808Z" fill="#980203"/>
<path d="M56.0254 32.9433L56.0127 32.9742L56.0465 32.9676L56.0432 32.9505L56.0421 32.9488L56.0254 32.9433Z" fill="#980203"/>
<path d="M50.7057 35.6007L41.8809 43.304L43.8233 45.5701L52.6482 37.8668L50.7057 35.6007Z" fill="#CC092F"/>
<path d="M12.2461 36.1806L10.3037 38.4467L18.9551 45.9985L20.8975 43.7324L12.2461 36.1806Z" fill="#0046AE"/>
<path d="M32.3734 32.4736H29.4043V45.9377H32.3734V32.4736Z" fill="#FFD200"/>
<path d="M42.7049 22.455L42.2575 22.6281L38.069 24.2588V23.9209L42.2406 22.2984L42.4356 22.2168V17.6185L41.3179 18.0463L40.5268 18.3545L34.6907 20.6275L30.9153 17L30.6312 17.3016L27.189 20.4819L21.2508 18.1704L20.4597 17.8622L19.342 17.4085V22.0421L19.537 22.1149L23.7064 23.7373V24.0752L19.5201 22.4445L19.0727 22.2714L17.6113 21.6744V26.5665L18.3876 26.8681L21.0705 27.9122V33.4317H40.7404V28.0815L43.3872 27.0522L44.1657 26.7506V21.9313L42.7044 22.4556L42.7049 22.455ZM42.2575 25.4276L40.0477 26.2881L38.8328 26.7611V31.5061H32.4853V22.9881L30.8798 21.3679L29.2742 22.9881V31.5061H22.9798V26.5902L22.2035 26.2887L19.5206 25.2445V24.5102L23.7069 26.1409V30.6031H25.6157V23.6496L25.6282 22.4192L21.2508 20.7179V20.2366L26.3258 22.2097V30.5672H28.2346V22.1275L30.9109 19.6556L33.5408 22.1832V30.7436L35.2693 30.7866L35.4495 22.3949L40.5268 20.4196V20.9009L36.1625 22.5978L36.1603 23.8283V30.7861H38.069V26.324L42.2575 24.6932V25.4276Z" fill="#980203"/>
<path d="M53.711 43.0037H8.06738V46H53.711V43.0037Z" fill="black"/>
<path d="M11.4831 26.9767L11.464 26.9872L11.4492 26.9596L11.4831 26.9767Z" fill="black"/>
<path d="M11.4877 20.353L11.4847 20.3552L11.4795 20.353H11.4877Z" fill="black"/>
<path d="M11.4985 20.3634L11.483 20.3932L11.4658 20.3634L11.483 20.3546L11.4985 20.3634Z" fill="black"/>
<path d="M10.4823 25.0908V25.1657L10.4502 25.1084L10.4823 25.0908Z" fill="black"/>
<path d="M11.4985 20.3634L11.483 20.3932L11.4658 20.3634L11.483 20.3546L11.4985 20.3634Z" fill="black"/>
<path d="M10.4823 25.0908V25.1657L10.4502 25.1084L10.4823 25.0908Z" fill="black"/>
<path d="M11.4831 26.9767L11.464 26.9872L11.4492 26.9596L11.4831 26.9767Z" fill="black"/>
<path d="M11.4985 20.3634L11.483 20.3932L11.4658 20.3634L11.483 20.3546L11.4985 20.3634Z" fill="black"/>
</g>
<defs>
<clipPath id="clip0_666_51">
<rect width="59" height="29" fill="white" transform="translate(2 17)"/>
</clipPath>
</defs>
</svg>
