<svg width="1080" height="428" viewBox="0 0 1080 428" fill="none" xmlns="http://www.w3.org/2000/svg">
<g clip-path="url(#clip0_668_297)">
<path d="M337.14 103L337.07 103.09V102.95L376.21 81.63L376.16 81.56H376.23V8.79004L324.66 36.87L324.64 36.89L324.8 36.98L324.64 37.31L324.45 36.98L324.64 36.89L324.59 36.87L273.02 8.79004V81.56H273.09L273.04 81.63L313.52 103.66V126.86L319.59 131.46L529.55 317.6L551.41 292.96L337.12 103H337.14ZM296.56 48.4L313.51 57.65V76.88L296.56 67.65V48.4ZM313.53 89.8L313.18 89.16L313.53 88.97V89.79V89.8ZM324.43 109.83L324.27 109.52L324.65 109.71L324.44 109.83H324.43ZM337.05 56.92L352.7 48.4V67.65L337.05 76.17V56.92Z" fill="#11603C"/>
<path d="M526.02 294.27L547.88 318.91L757.84 132.77L763.91 128.17V104.97L804.39 82.9401L804.34 82.8701H804.41V10.1101L752.84 38.1901L752.79 38.2101L752.98 38.3001L752.79 38.6301L752.63 38.3001L752.79 38.2101L752.77 38.1901L701.2 10.1101V82.8801H701.27L701.22 82.9501L740.36 104.27V104.41L740.29 104.32L526 294.28L526.02 294.27ZM780.89 68.9601L763.94 78.1901V58.9601L780.89 49.7101V68.9601ZM763.92 90.2801L764.27 90.4701L763.92 91.1101V90.2901V90.2801ZM752.81 111.01L753.19 110.82L753.03 111.13L752.82 111.01H752.81ZM740.41 77.4701L724.76 68.9501V49.7001L740.41 58.2201V77.4701Z" fill="#7E9F34"/>
<path d="M329.49 229.52L329.44 229.76L329.1 229.68L329.49 229.52Z" fill="#980203"/>
<path d="M329.58 229.13L329.7 229.46L329.49 229.52L329.58 229.13Z" fill="#980203"/>
<path d="M274.6 181.82L274.74 182.16L274.37 182.08L274.4 181.9L274.42 181.88L274.6 181.82Z" fill="#980203"/>
<path d="M286.92 124.48L274.42 181.88L274.6 181.82L274.74 182.16L274.37 182.09L274.41 181.9L219.4 202.53L274.44 250.14L274.49 250.09L274.51 250.17L317.66 233.97L338.68 252.16L354.08 234.36L332.52 215.71L342 172.16H341.92L341.97 172.1L286.93 124.49L286.92 124.48ZM306.45 224.75L306.54 224.36L307.16 224.9L306.45 224.75ZM329.7 229.46L329.49 229.53L329.44 229.77L329.1 229.69L329.49 229.53L329.58 229.14L329.7 229.46Z" fill="#980203"/>
<path d="M306.54 224.36L307.16 224.9L306.45 224.75L306.54 224.36Z" fill="#980203"/>
<path d="M274.6 181.82L274.74 182.16L274.37 182.08L274.4 181.9L274.42 181.88L274.6 181.82Z" fill="#980203"/>
<path d="M329.58 229.13L329.7 229.46L329.49 229.52L329.58 229.13Z" fill="#980203"/>
<path d="M306.54 224.36L307.16 224.9L306.45 224.75L306.54 224.36Z" fill="#980203"/>
<path d="M329.49 229.52L329.44 229.76L329.1 229.68L329.49 229.52Z" fill="#980203"/>
<path d="M274.6 181.82L274.74 182.16L274.37 182.08L274.4 181.9L274.42 181.88L274.6 181.82Z" fill="#980203"/>
<path d="M764.07 223.03L764.12 223.27L764.46 223.2L764.07 223.03Z" fill="#980203"/>
<path d="M763.98 222.64L763.86 222.97L764.07 223.03L763.98 222.64Z" fill="#980203"/>
<path d="M818.96 175.33L818.82 175.67L819.19 175.6L819.16 175.41L819.14 175.39L818.96 175.33Z" fill="#980203"/>
<path d="M751.6 165.6L751.65 165.65H751.57L761.05 209.21L739.49 227.86L754.89 245.66L775.91 227.47L819.06 243.67L819.08 243.59L819.13 243.64L874.17 196.03L819.16 175.4L819.2 175.59L818.83 175.66L818.97 175.32L819.15 175.38L806.65 117.98L751.61 165.59L751.6 165.6ZM786.39 218.41L787.01 217.87L787.1 218.26L786.39 218.41ZM763.98 222.65L764.07 223.04L764.46 223.2L764.12 223.28L764.07 223.04L763.86 222.97L763.98 222.65Z" fill="#980203"/>
<path d="M787.02 217.87L786.4 218.41L787.11 218.26L787.02 217.87Z" fill="#980203"/>
<path d="M818.96 175.33L818.82 175.67L819.19 175.6L819.16 175.41L819.14 175.39L818.96 175.33Z" fill="#980203"/>
<path d="M763.98 222.64L763.86 222.97L764.07 223.03L763.98 222.64Z" fill="#980203"/>
<path d="M787.02 217.87L786.4 218.41L787.11 218.26L787.02 217.87Z" fill="#980203"/>
<path d="M764.07 223.03L764.12 223.27L764.46 223.2L764.07 223.03Z" fill="#980203"/>
<path d="M818.96 175.33L818.82 175.67L819.19 175.6L819.16 175.41L819.14 175.39L818.96 175.33Z" fill="#980203"/>
<path d="M759.934 204.566L662 289.28L683.556 314.201L781.49 229.487L759.934 204.566Z" fill="#CC092F"/>
<path d="M333.096 210.927L311.54 235.847L407.553 318.9L429.109 293.979L333.096 210.927Z" fill="#0046AE"/>
<path d="M556.47 170.17H523.52V318.24H556.47V170.17Z" fill="#FFD200"/>
<path d="M671.13 59.99L666.16 61.9L619.68 79.83V76.11L665.97 58.27L668.14 57.38V6.8L655.74 11.51L646.96 14.9L582.19 39.89L540.29 0L537.14 3.32L498.94 38.29L433.04 12.87L424.26 9.48L411.86 4.49V55.44L414.03 56.24L460.3 74.08V77.8L413.84 59.87L408.87 57.96L392.65 51.39V105.19L401.26 108.51L431.03 120V180.7H649.32V121.86L678.69 110.54L687.33 107.22V54.22L671.11 59.99H671.13ZM666.16 92.68L641.64 102.14L628.15 107.34V159.52H557.71V65.85L539.89 48.03L522.07 65.85V159.52H452.22V105.46L443.61 102.14L413.84 90.65V82.58L460.3 100.51V149.58H481.48V73.11L481.62 59.58L433.04 40.87V35.57L489.36 57.27V149.18H510.54V56.39L540.24 29.21L569.42 57.01V151.15L588.6 151.62L590.6 59.34L646.94 37.62V42.92L598.5 61.58L598.48 75.11V151.62H619.66V102.55L666.14 84.62V92.69L666.16 92.68Z" fill="#980203"/>
<path d="M793.26 285.97H286.73V318.92H793.26V285.97Z" fill="white"/>
<path d="M324.64 109.71L324.43 109.83L324.27 109.52L324.64 109.71Z" fill="black"/>
<path d="M324.67 36.8701L324.64 36.8901L324.6 36.8701H324.67Z" fill="black"/>
<path d="M324.81 36.9901L324.64 37.3201L324.45 36.9901L324.64 36.8901L324.81 36.9901Z" fill="black"/>
<path d="M313.53 88.9802V89.8002L313.18 89.1702L313.53 88.9802Z" fill="black"/>
<path d="M324.81 36.9901L324.64 37.3201L324.45 36.9901L324.64 36.8901L324.81 36.9901Z" fill="black"/>
<path d="M313.53 88.9802V89.8002L313.18 89.1702L313.53 88.9802Z" fill="black"/>
<path d="M324.64 109.71L324.43 109.83L324.27 109.52L324.64 109.71Z" fill="black"/>
<path d="M324.81 36.9901L324.64 37.3201L324.45 36.9901L324.64 36.8901L324.81 36.9901Z" fill="black"/>
<path d="M66.7 410.02L64.63 411.76C63.62 412.58 62.05 413.57 59.63 414.84C57.28 416.06 54.42 417.14 51.08 418.08C47.91 418.95 44.41 419.39 40.66 419.39C40.38 419.39 40.12 419.39 39.84 419.37C33.67 419.23 28.05 418.1 23.17 415.99C18.24 413.88 13.99 410.92 10.54 407.21C7.14 403.55 4.48 399.27 2.68 394.53C0.9 389.81 0 384.72 0 379.36C0 373.47 0.92 367.95 2.72 362.97C4.55 357.95 7.2 353.53 10.66 349.85C14.09 346.16 18.27 343.25 23.06 341.21C27.8 339.21 33.11 338.18 38.81 338.18C44.05 338.18 48.79 338.91 52.9 340.34C56.89 341.75 60.22 343.3 62.81 344.94L65.3 346.54L56.8 366.99L53.16 364.22C51.7 363.12 49.69 361.94 47.17 360.7C44.94 359.6 42.31 359.03 39.31 359.03C37.06 359.03 34.92 359.5 32.83 360.44C30.74 361.4 28.86 362.76 27.27 364.5C25.63 366.28 24.31 368.4 23.37 370.77C22.41 373.14 21.94 375.75 21.94 378.59C21.94 381.67 22.39 384.48 23.25 386.97C24.12 389.41 25.34 391.5 26.91 393.21C28.46 394.88 30.36 396.21 32.54 397.13C34.75 398.05 37.33 398.52 40.19 398.52C43.55 398.52 46.41 398 48.69 396.97C51.08 395.89 52.89 394.79 54.04 393.68L57.59 390.28L66.7 410.02Z" fill="white"/>
<path d="M146.71 363.28C144.6 358.42 141.64 354.05 137.88 350.3C134.15 346.57 129.78 343.59 124.94 341.45C120.03 339.29 114.73 338.19 109.21 338.19C103.69 338.19 98.29 339.29 93.39 341.45C88.53 343.59 84.21 346.57 80.52 350.32C76.83 354.08 73.92 358.44 71.86 363.3C69.77 368.18 68.71 373.42 68.71 378.87C68.71 384.32 69.77 389.76 71.86 394.65C73.93 399.53 76.86 403.85 80.55 407.54C84.24 411.25 88.58 414.16 93.44 416.25C98.32 418.32 103.63 419.37 109.22 419.37C114.81 419.37 120.02 418.31 124.9 416.25C129.76 414.16 134.13 411.25 137.86 407.59C141.62 403.88 144.6 399.56 146.71 394.68C148.85 389.8 149.9 384.47 149.9 378.88C149.9 373.29 148.84 368.2 146.71 363.29V363.28ZM128.07 378.87C128.07 381.64 127.6 384.22 126.66 386.59C125.7 388.96 124.38 391.1 122.69 392.91C121.07 394.67 119.12 396.08 116.91 397.07C112.38 399.07 106.6 398.97 102.19 397.05C99.89 396.06 97.85 394.66 96.11 392.85C94.37 391.04 92.99 388.93 92 386.58C91.04 384.23 90.54 381.63 90.54 378.88C90.54 376.13 91.03 373.41 91.97 371.02C92.91 368.63 94.27 366.51 95.98 364.7C97.67 362.92 99.69 361.51 101.94 360.52C104.17 359.53 106.64 359.04 109.29 359.04C111.94 359.04 114.43 359.53 116.66 360.52C118.89 361.51 120.89 362.91 122.55 364.68C124.24 366.49 125.6 368.65 126.59 371.04C127.55 373.43 128.05 376.09 128.05 378.88L128.07 378.87Z" fill="white"/>
<path d="M229.58 338.98V421.54L178.45 380.13L178.73 418.59H157.15V336.11L208.38 378.14L208.12 338.98H229.58Z" fill="white"/>
<path d="M313.7 338.98V421.54L262.56 380.16L262.82 418.59H241.27V336.11L292.5 378.14L292.22 338.98H313.7Z" fill="white"/>
<path d="M383.3 397.74V418.59H325.39V338.98H381.92V359.82H346.73V368.25H377.88V389.1H346.73V397.74H383.3Z" fill="white"/>
<path d="M453.34 410.02L451.25 411.76C450.24 412.58 448.67 413.57 446.25 414.84C443.9 416.06 441.04 417.14 437.7 418.08C434.53 418.95 431.03 419.39 427.28 419.39C427.02 419.39 426.74 419.39 426.46 419.37C420.29 419.23 414.7 418.1 409.79 415.99C404.86 413.88 400.61 410.92 397.18 407.21C393.75 403.55 391.1 399.27 389.29 394.53C387.51 389.81 386.61 384.72 386.61 379.36C386.61 373.47 387.53 367.95 389.33 362.97C391.16 357.95 393.84 353.53 397.27 349.85C400.7 346.16 404.88 343.25 409.67 341.21C414.41 339.21 419.72 338.18 425.42 338.18C430.66 338.18 435.4 338.91 439.51 340.34C443.5 341.75 446.83 343.3 449.42 344.94L451.91 346.54L443.41 366.99L439.77 364.22C438.31 363.12 436.3 361.94 433.78 360.7C431.55 359.6 428.92 359.03 425.92 359.03C423.67 359.03 421.53 359.5 419.44 360.44C417.35 361.4 415.47 362.76 413.88 364.5C412.24 366.28 410.92 368.4 409.98 370.77C409.02 373.14 408.55 375.75 408.55 378.59C408.55 381.67 409 384.48 409.89 386.97C410.74 389.41 411.96 391.5 413.53 393.21C415.08 394.88 416.98 396.21 419.16 397.13C421.37 398.05 423.95 398.52 426.81 398.52C430.17 398.52 433.03 398 435.33 396.97C437.7 395.89 439.51 394.79 440.66 393.68L444.2 390.28L453.33 410.02H453.34Z" fill="white"/>
<path d="M510.78 338.98V359.82H493.15V418.59H471.81V359.82H454.84V338.98H510.78Z" fill="white"/>
<path d="M631.38 339.54V418.59H610.04V391.56L589.66 417.6L570.44 393.44V418.59H549.59V336.02L590.04 385.7L631.2 336.02L631.38 339.54Z" fill="white"/>
<path d="M716.63 363.28C714.52 358.42 711.56 354.05 707.8 350.3C704.07 346.57 699.7 343.59 694.86 341.45C689.95 339.29 684.65 338.19 679.13 338.19C673.61 338.19 668.21 339.29 663.31 341.45C658.45 343.59 654.13 346.57 650.44 350.32C646.75 354.08 643.84 358.44 641.78 363.3C639.69 368.18 638.63 373.42 638.63 378.87C638.63 384.32 639.69 389.76 641.78 394.65C643.85 399.53 646.78 403.85 650.47 407.54C654.16 411.25 658.48 414.16 663.36 416.25C668.24 418.32 673.55 419.37 679.14 419.37C684.73 419.37 689.94 418.31 694.82 416.25C699.68 414.16 704.05 411.25 707.78 407.59C711.54 403.88 714.52 399.56 716.63 394.68C718.74 389.8 719.82 384.47 719.82 378.88C719.82 373.29 718.74 368.2 716.63 363.29V363.28ZM697.99 378.87C697.99 381.64 697.52 384.22 696.58 386.59C695.62 388.96 694.28 391.1 692.61 392.91C690.99 394.67 689.04 396.08 686.83 397.07C682.3 399.07 676.52 398.97 672.11 397.05C669.81 396.06 667.77 394.66 666.03 392.85C664.27 391.04 662.91 388.93 661.92 386.58C660.96 384.23 660.46 381.63 660.46 378.88C660.46 376.13 660.93 373.41 661.89 371.02C662.83 368.63 664.17 366.51 665.88 364.7C667.59 362.92 669.61 361.51 671.87 360.52C674.1 359.53 676.57 359.04 679.22 359.04C681.87 359.04 684.34 359.53 686.59 360.52C688.82 361.51 690.82 362.91 692.48 364.68C694.17 366.49 695.53 368.65 696.52 371.04C697.48 373.43 697.98 376.09 697.98 378.88L697.99 378.87Z" fill="white"/>
<path d="M782.53 397.74V418.59H727.08V338.98H748.42V397.74H782.53Z" fill="white"/>
<path d="M856.71 365.46C855.11 360.58 852.58 356.07 849.17 352.13C845.7 348.12 841.09 344.88 835.51 342.5C829.97 340.15 823.23 338.98 815.48 338.98H790.27V418.59H819.05C824.36 418.59 829.47 417.7 834.26 415.96C839.07 414.2 843.37 411.59 847.05 408.24C850.74 404.88 853.69 400.77 855.83 396.06C857.97 391.32 859.05 385.92 859.05 380.07C859.05 375.19 858.25 370.28 856.7 365.47L856.71 365.46ZM837.22 379.08C837.22 382.2 836.73 385 835.74 387.34C834.8 389.64 833.51 391.47 831.77 392.97C830.01 394.5 827.85 395.67 825.36 396.47C822.75 397.32 819.8 397.74 816.58 397.74H811.6V359.71H819.72C821.06 359.71 822.77 359.99 824.84 360.53C826.77 361.05 828.71 362.01 830.62 363.39C832.43 364.68 834 366.61 835.29 369.09C836.56 371.58 837.22 374.91 837.22 379.07V379.08Z" fill="white"/>
<path d="M939.87 363.28C937.76 358.42 934.8 354.05 931.04 350.3C927.28 346.57 922.94 343.59 918.08 341.45C913.17 339.29 907.89 338.19 902.37 338.19C896.85 338.19 891.45 339.29 886.55 341.45C881.69 343.59 877.35 346.57 873.68 350.32C869.99 354.08 867.08 358.44 864.99 363.3C862.92 368.18 861.87 373.42 861.87 378.87C861.87 384.32 862.93 389.76 864.99 394.65C867.08 399.53 869.99 403.85 873.68 407.54C877.39 411.25 881.71 414.16 886.59 416.25C891.47 418.32 896.78 419.37 902.37 419.37C907.96 419.37 913.15 418.31 918.05 416.25C922.89 414.16 927.25 411.25 931.01 407.59C934.77 403.88 937.75 399.56 939.86 394.68C941.97 389.8 943.05 384.47 943.05 378.88C943.05 373.29 941.97 368.2 939.86 363.29L939.87 363.28ZM921.23 378.87C921.23 381.64 920.76 384.22 919.8 386.59C918.86 388.96 917.52 391.1 915.86 392.91C914.22 394.67 912.27 396.08 910.06 397.07C905.55 399.07 899.75 398.97 895.34 397.05C893.06 396.06 891.02 394.66 889.28 392.85C887.52 391.04 886.13 388.93 885.17 386.58C884.21 384.23 883.71 381.63 883.71 378.88C883.71 376.13 884.18 373.41 885.14 371.02C886.08 368.63 887.42 366.51 889.13 364.7C890.84 362.92 892.86 361.51 895.09 360.52C897.32 359.53 899.81 359.04 902.46 359.04C905.11 359.04 907.58 359.53 909.81 360.52C912.06 361.51 914.04 362.91 915.73 364.68C917.42 366.49 918.78 368.65 919.77 371.04C920.73 373.43 921.23 376.09 921.23 378.88V378.87Z" fill="white"/>
<path d="M1019.27 338.98L980.76 427.23L942.24 338.98H967.15L981.26 373.77L994.5 338.98H1019.27Z" fill="white"/>
<path d="M1063.43 383.89L1055.24 366.73L1040.6 336.11L1026.64 366.73L1015.63 390.88L1002.99 418.58H1024.81L1030.72 404.39H1050.07L1055.67 418.58H1080.01L1063.44 383.89H1063.43ZM1036.11 388.48L1040.72 377.35L1045.12 388.48H1036.11Z" fill="white"/>
</g>
<defs>
<clipPath id="clip0_668_297">
<rect width="1080" height="427.23" fill="white"/>
</clipPath>
</defs>
</svg>
